<?xml version="1.0" standalone="no"?>
<!DOCTYPE svg PUBLIC "-//W3C//DTD SVG 20010904//EN"
 "http://www.w3.org/TR/2001/REC-SVG-20010904/DTD/svg10.dtd">
<svg version="1.0" xmlns="http://www.w3.org/2000/svg"
 width="512.000000pt" height="512.000000pt" viewBox="0 0 512.000000 512.000000"
 preserveAspectRatio="xMidYMid meet">

<g transform="translate(0.000000,512.000000) scale(0.100000,-0.100000)"
fill="#000000" stroke="none">
<path d="M2425 4654 c-522 -43 -1113 -321 -1724 -810 -243 -195 -659 -584
-687 -642 -13 -29 -15 -51 -10 -121 19 -249 73 -411 194 -596 60 -90 226 -256
325 -325 l77 -54 0 -163 0 -163 -100 -200 c-55 -110 -100 -210 -100 -222 0
-35 26 -67 125 -158 568 -521 1278 -764 2155 -737 803 25 1402 257 1925 747
91 85 115 115 115 148 0 12 -45 112 -100 222 l-100 200 0 163 0 163 78 54 c98
69 264 235 324 325 123 187 177 353 194 603 l7 98 -45 55 c-51 63 -353 348
-513 485 -601 513 -1188 824 -1716 908 -99 16 -336 27 -424 20z m431 -224
c586 -106 1259 -517 1927 -1179 l137 -136 -6 -60 c-17 -182 -80 -352 -177
-484 -58 -80 -182 -198 -270 -259 l-75 -52 -1832 0 -1832 0 -75 52 c-265 183
-417 436 -447 743 l-6 60 137 136 c580 570 1159 956 1688 1122 92 29 256 63
365 77 109 13 338 4 466 -20z m1464 -2470 l0 -100 -1760 0 -1760 0 0 100 0
100 1760 0 1760 0 0 -100z m110 -439 l69 -139 -77 -69 c-356 -318 -743 -506
-1232 -598 -247 -47 -618 -66 -875 -46 -679 54 -1177 252 -1617 644 l-77 69
69 139 70 139 1800 0 1800 0 70 -139z"/>
<path d="M2397 4245 c-276 -53 -519 -237 -642 -490 -70 -142 -88 -224 -88
-395 0 -118 4 -160 22 -225 68 -251 246 -468 476 -580 142 -70 223 -88 395
-88 172 0 253 18 395 88 230 112 408 329 476 580 18 65 22 107 22 225 0 171
-18 253 -88 395 -112 230 -333 411 -580 475 -106 28 -283 35 -388 15z m301
-201 c44 -8 118 -35 172 -61 81 -39 108 -58 182 -133 72 -72 94 -103 131 -181
102 -209 102 -409 0 -618 -37 -78 -59 -109 -131 -181 -74 -75 -101 -94 -182
-133 -211 -102 -409 -102 -620 0 -81 39 -108 58 -182 133 -72 72 -94 103 -131
181 -50 102 -77 212 -77 309 0 97 27 207 77 309 37 78 59 109 131 181 74 74
101 94 182 133 153 74 292 93 448 61z"/>
<path d="M2475 3842 c-86 -40 -135 -132 -117 -218 11 -51 47 -108 79 -125 23
-12 23 -15 23 -216 0 -112 -4 -203 -8 -203 -4 0 -29 13 -54 29 -79 50 -119
118 -137 232 -9 52 -16 69 -42 93 -27 23 -38 27 -68 22 -52 -8 -91 -54 -91
-109 0 -161 119 -351 268 -426 159 -80 305 -80 464 0 154 78 282 289 265 438
-7 63 -54 106 -106 97 -48 -7 -91 -55 -91 -99 0 -52 -27 -130 -60 -176 -27
-37 -110 -101 -132 -101 -4 0 -8 93 -8 206 0 206 0 206 24 225 35 28 66 98 66
150 0 139 -151 239 -275 181z"/>
<path d="M1065 1451 c-62 -26 -81 -110 -34 -156 14 -14 41 -28 61 -31 29 -5
41 -1 67 22 21 19 34 42 38 66 5 33 2 41 -30 73 -35 35 -62 42 -102 26z"/>
<path d="M1379 1231 c-38 -38 -39 -87 -4 -129 42 -50 294 -135 537 -181 244
-47 639 -76 697 -52 79 33 82 150 3 179 -15 6 -95 13 -179 16 -332 14 -679 79
-885 166 -91 39 -131 39 -169 1z"/>
</g>
</svg>
